<svg width="750" height="171" viewBox="0 0 750 171" fill="none" xmlns="http://www.w3.org/2000/svg">
<mask id="mask0_20_3" style="mask-type:alpha" maskUnits="userSpaceOnUse" x="0" y="19" width="748" height="122">
<path d="M208.525 120H206.825H204.445H192.035V119.915C193.452 119.745 194.585 119.178 195.435 118.215L195.775 117.875C196.625 116.798 197.078 115.552 197.135 114.135V111.585V70.275L174.1 116.26L176.14 120H169.935L142.565 71.72V110.82C142.565 112.803 143.018 114.617 143.925 116.26C144.888 117.903 146.305 119.122 148.175 119.915V120H142.055H141.29H135.17V119.915C137.04 119.122 138.457 117.903 139.42 116.26C140.44 114.617 140.978 112.803 141.035 110.82V110.905V69L137.21 62.285H144.52L173.25 114.73L199.515 62.285H206.825H208.525V62.455C207.335 62.5117 206.258 63.0217 205.295 63.985L204.87 64.495C204.077 65.4583 203.623 66.6483 203.51 68.065V114.135C203.51 115.552 203.963 116.798 204.87 117.875L205.21 118.215C206.173 119.178 207.278 119.745 208.525 119.915V120ZM232.426 76.735C235.486 76.735 238.348 77.33 241.011 78.52C243.674 79.6533 245.998 81.2117 247.981 83.195C249.964 85.1783 251.523 87.5017 252.656 90.165C253.846 92.8283 254.441 95.69 254.441 98.75C254.441 101.81 253.846 104.7 252.656 107.42C251.523 110.083 249.964 112.407 247.981 114.39C245.998 116.373 243.674 117.96 241.011 119.15C238.348 120.283 235.486 120.85 232.426 120.85C229.366 120.85 226.504 120.283 223.841 119.15C221.178 117.96 218.854 116.373 216.871 114.39C214.888 112.407 213.301 110.083 212.111 107.42C210.978 104.7 210.411 101.81 210.411 98.75C210.411 95.69 210.978 92.8283 212.111 90.165C213.301 87.5017 214.888 85.1783 216.871 83.195C218.854 81.2117 221.178 79.6533 223.841 78.52C226.504 77.33 229.366 76.735 232.426 76.735ZM232.426 120C234.579 120 236.591 119.462 238.461 118.385C240.388 117.252 242.059 115.722 243.476 113.795C244.893 111.868 245.998 109.63 246.791 107.08C247.641 104.473 248.066 101.697 248.066 98.75C248.066 95.86 247.641 93.14 246.791 90.59C245.998 87.9833 244.893 85.7167 243.476 83.79C242.059 81.8633 240.388 80.3617 238.461 79.285C236.591 78.1517 234.579 77.585 232.426 77.585C230.273 77.585 228.233 78.1517 226.306 79.285C224.436 80.3617 222.793 81.8633 221.376 83.79C219.959 85.7167 218.826 87.9833 217.976 90.59C217.183 93.14 216.786 95.86 216.786 98.75C216.786 101.697 217.183 104.473 217.976 107.08C218.826 109.63 219.959 111.868 221.376 113.795C222.793 115.722 224.436 117.252 226.306 118.385C228.233 119.462 230.273 120 232.426 120ZM327.421 120.085H325.721H312.631H310.931V120C312.235 119.83 313.368 119.263 314.331 118.3L314.586 117.96C315.493 116.883 315.946 115.637 315.946 114.22V98.58C315.946 95.9733 315.861 93.4233 315.691 90.93C315.578 88.38 315.238 86.1417 314.671 84.215C314.105 82.2317 313.226 80.645 312.036 79.455C310.903 78.265 309.288 77.67 307.191 77.67C304.981 77.67 303.111 78.3217 301.581 79.625C300.051 80.9283 298.776 82.515 297.756 84.385C296.793 86.255 296.085 88.1817 295.631 90.165C295.235 92.1483 295.036 93.82 295.036 95.18V95.095C295.036 95.3217 295.036 95.52 295.036 95.69C295.093 95.86 295.121 96.03 295.121 96.2V114.39C295.235 115.807 295.66 116.968 296.396 117.875L296.991 118.47C297.841 119.32 298.89 119.83 300.136 120V120.085H298.436H285.346H283.646V120C285.063 119.83 286.253 119.207 287.216 118.13C288.18 116.997 288.661 115.665 288.661 114.135V113.03V111.67V98.58C288.661 95.9733 288.576 93.4233 288.406 90.93C288.293 88.38 287.953 86.1417 287.386 84.215C286.876 82.2317 286.026 80.645 284.836 79.455C283.646 78.265 282.003 77.67 279.906 77.67C277.696 77.67 275.826 78.3217 274.296 79.625C272.766 80.9283 271.52 82.515 270.556 84.385C269.593 86.255 268.885 88.1817 268.431 90.165C268.035 92.1483 267.836 93.82 267.836 95.18V114.22C267.836 115.637 268.29 116.883 269.196 117.96L269.536 118.3C270.443 119.263 271.548 119.83 272.851 120V120.085H271.151H258.061H256.361V120C257.721 119.83 258.855 119.235 259.761 118.215L260.016 117.96C260.923 116.883 261.376 115.608 261.376 114.135V113.03V111.67V88.465C261.376 85.1783 260.271 82.345 258.061 79.965L267.836 77.33V87.19C268.233 86.1133 268.771 84.98 269.451 83.79C270.131 82.5433 270.953 81.41 271.916 80.39C272.936 79.3133 274.126 78.435 275.486 77.755C276.903 77.075 278.546 76.735 280.416 76.735C282.796 76.735 284.808 77.0467 286.451 77.67C288.151 78.2933 289.54 79.1433 290.616 80.22C291.693 81.2967 292.543 82.6 293.166 84.13C293.79 85.6033 294.243 87.19 294.526 88.89C294.866 87.87 295.348 86.6517 295.971 85.235C296.595 83.8183 297.416 82.4867 298.436 81.24C299.456 79.9933 300.731 78.945 302.261 78.095C303.791 77.1883 305.605 76.735 307.701 76.735C310.875 76.735 313.425 77.2733 315.351 78.35C317.278 79.4267 318.751 80.8717 319.771 82.685C320.791 84.4983 321.471 86.5667 321.811 88.89C322.151 91.2133 322.35 93.65 322.406 96.2V111.67V114.22C322.406 115.637 322.86 116.883 323.766 117.96L324.021 118.3C324.985 119.263 326.118 119.83 327.421 120V120.085ZM354.778 117.875C357.158 117.875 359.255 117.535 361.068 116.855C362.881 116.118 364.411 115.325 365.658 114.475C367.131 113.455 368.378 112.322 369.398 111.075L370.078 111.67C368.831 113.37 367.273 114.9 365.403 116.26C363.816 117.393 361.861 118.442 359.538 119.405C357.215 120.312 354.438 120.765 351.208 120.765C348.148 120.765 345.286 120.198 342.623 119.065C339.96 117.875 337.636 116.288 335.653 114.305C333.67 112.322 332.111 109.998 330.978 107.335C329.845 104.672 329.278 101.81 329.278 98.75C329.278 95.69 329.845 92.8283 330.978 90.165C332.111 87.5017 333.67 85.1783 335.653 83.195C337.636 81.2117 339.96 79.6533 342.623 78.52C345.286 77.33 348.148 76.735 351.208 76.735C353.588 76.735 355.713 77.075 357.583 77.755C359.453 78.3783 361.068 79.2567 362.428 80.39C362.541 80.5033 362.598 80.56 362.598 80.56C363.505 81.2967 364.298 82.09 364.978 82.94C366.225 84.47 367.103 85.9433 367.613 87.36C368.123 88.7767 368.491 89.995 368.718 91.015C368.945 92.035 369.171 92.8 369.398 93.31C369.681 93.82 370.248 93.9617 371.098 93.735V94.67L362.258 97.22L336.588 105.04C337.041 106.23 337.551 107.392 338.118 108.525C338.741 109.602 339.478 110.622 340.328 111.585L342.028 113.285C343.615 114.702 345.456 115.835 347.553 116.685C349.65 117.478 352.058 117.875 354.778 117.875ZM351.208 77.755C347.865 77.755 345.031 78.5767 342.708 80.22C340.441 81.8633 338.656 83.9883 337.353 86.595C336.106 89.145 335.37 91.9783 335.143 95.095C334.973 98.2117 335.341 101.215 336.248 104.105L362.683 96.115C362.91 94.585 362.91 92.7717 362.683 90.675C362.513 88.5217 361.975 86.51 361.068 84.64C360.218 82.7133 358.971 81.0983 357.328 79.795C355.741 78.435 353.701 77.755 351.208 77.755ZM416.847 120.085H415.062H402.057H400.357V120C401.717 119.83 402.822 119.263 403.672 118.3L404.012 117.96C404.919 116.883 405.372 115.608 405.372 114.135V98.58C405.316 95.9733 405.231 93.4233 405.117 90.93C405.004 88.38 404.664 86.1417 404.097 84.215C403.531 82.2317 402.652 80.645 401.462 79.455C400.329 78.265 398.714 77.67 396.617 77.67C394.407 77.67 392.537 78.3217 391.007 79.625C389.477 80.9283 388.202 82.515 387.182 84.385C386.219 86.255 385.511 88.1817 385.057 90.165C384.661 92.1483 384.462 93.82 384.462 95.18V111.67V114.22C384.462 115.637 384.916 116.883 385.822 117.96L386.162 118.3C387.012 119.263 388.117 119.83 389.477 120V120.085H387.777H374.687H374.772H372.987V120C374.404 119.83 375.537 119.263 376.387 118.3L376.642 117.96C377.549 116.883 378.002 115.608 378.002 114.135V88.465C378.002 86.8783 377.719 85.3483 377.152 83.875C376.642 82.4017 375.821 81.0983 374.687 79.965L384.462 77.33V87.19C384.859 86.1133 385.397 84.98 386.077 83.79C386.757 82.5433 387.579 81.41 388.542 80.39C389.562 79.3133 390.752 78.435 392.112 77.755C393.529 77.075 395.172 76.735 397.042 76.735C400.272 76.735 402.822 77.2733 404.692 78.35C406.619 79.4267 408.092 80.8717 409.112 82.685C410.132 84.4983 410.812 86.5667 411.152 88.89C411.492 91.2133 411.691 93.65 411.747 96.2V111.67V114.22C411.804 115.637 412.286 116.883 413.192 117.96L413.447 118.3C414.297 119.263 415.431 119.83 416.847 120V120.085ZM435.842 115.665C435.162 116.628 434.341 117.478 433.377 118.215C432.584 118.838 431.592 119.433 430.402 120C429.212 120.51 427.852 120.765 426.322 120.765C423.886 120.765 422.044 119.943 420.797 118.3C419.551 116.657 418.871 114.475 418.757 111.755H418.672V78.86H414.082V77.245C415.726 77.245 417.171 76.8483 418.417 76.055C419.664 75.205 420.712 74.2133 421.562 73.08C422.412 71.89 423.064 70.6717 423.517 69.425C423.971 68.1217 424.197 67.045 424.197 66.195H425.132V77.245H434.142V78.86H425.132V111.33C425.132 113.71 425.614 115.353 426.577 116.26C427.541 117.167 428.759 117.62 430.232 117.62C431.082 117.62 431.847 117.507 432.527 117.28C433.207 117.053 433.774 116.798 434.227 116.515C434.794 116.175 435.276 115.778 435.672 115.325L435.842 115.665ZM445.383 71.635L441.473 65.94C441.473 64.75 441.813 63.73 442.493 62.88C443.23 62.03 444.193 61.605 445.383 61.605C446.573 61.605 447.508 62.03 448.188 62.88C448.925 63.73 449.293 64.75 449.293 65.94L445.383 71.635ZM454.223 120.085H452.523H439.433H437.733V120C439.093 119.83 440.227 119.235 441.133 118.215L441.388 117.96C442.295 116.883 442.748 115.608 442.748 114.135V113.03V111.67V88.465C442.748 85.1783 441.643 82.345 439.433 79.965L449.208 77.33V111.67V114.22C449.208 115.637 449.662 116.883 450.568 117.96L450.908 118.3C451.758 119.263 452.863 119.83 454.223 120V120.085ZM470.649 61.86C472.802 61.86 474.701 61.945 476.344 62.115C478.044 62.2283 479.489 62.37 480.679 62.54C482.096 62.7667 483.314 62.965 484.334 63.135L482.549 68.065C481.869 67.1583 480.991 66.3367 479.914 65.6C478.951 64.9767 477.732 64.41 476.259 63.9C474.842 63.39 473.142 63.135 471.159 63.135C469.686 63.135 468.439 63.7867 467.419 65.09C466.456 66.3367 465.974 68.4333 465.974 71.38V77.33H479.914V78.86H465.974V111.67V114.22C466.031 115.693 466.512 116.997 467.419 118.13C468.382 119.207 469.601 119.83 471.074 120V120.085H454.584V120C456.001 119.83 457.191 119.207 458.154 118.13C459.117 116.997 459.599 115.665 459.599 114.135V113.03V111.67V78.86H454.924V77.33H459.599V74.61C459.599 72.5133 459.882 70.6717 460.449 69.085C461.072 67.4983 461.866 66.1667 462.829 65.09C463.849 64.0133 465.011 63.22 466.314 62.71C467.674 62.1433 469.119 61.86 470.649 61.86ZM523.498 77.33V77.415C522.818 77.6983 522.194 78.0383 521.628 78.435C521.061 78.8317 520.523 79.4267 520.013 80.22C519.503 80.9567 518.936 81.9483 518.313 83.195C517.746 84.385 517.066 85.915 516.273 87.785L504.543 118.385C502.843 122.522 501.058 126.205 499.188 129.435C498.338 130.795 497.431 132.127 496.468 133.43C495.561 134.79 494.569 135.98 493.493 137C492.416 138.02 491.311 138.842 490.178 139.465C489.101 140.088 487.968 140.4 486.778 140.4L484.738 133.855C487.798 133.855 490.404 133.203 492.558 131.9C494.768 130.597 496.581 129.123 497.998 127.48C499.641 125.61 500.973 123.457 501.993 121.02L486.523 81.24L484.823 77.33H492.048H499.868V77.415C498.791 77.5283 497.799 77.7833 496.893 78.18C495.986 78.52 495.278 79.0867 494.768 79.88C494.258 80.6167 494.031 81.6083 494.088 82.855C494.144 84.1017 494.569 85.66 495.363 87.53L505.138 112.605L514.998 86.68C515.621 84.98 515.904 83.5917 515.848 82.515C515.848 81.4383 515.621 80.56 515.168 79.88C514.771 79.2 514.204 78.69 513.468 78.35C512.731 78.01 511.994 77.6983 511.258 77.415V77.33H523.498ZM564.682 120H533.232H524.477V119.915C525.78 119.745 526.913 119.178 527.877 118.215L528.217 117.875C528.67 117.365 528.982 116.798 529.152 116.175C529.378 115.495 529.52 114.815 529.577 114.135V67.64C529.407 66.3367 528.84 65.2033 527.877 64.24C526.97 63.2767 525.837 62.6817 524.477 62.455V62.285H526.262H529.577H535.782H563.832V71.635L562.812 70.19C561.395 68.2067 559.61 66.6767 557.457 65.6C555.303 64.4667 553.008 63.9 550.572 63.9H535.952V84.385H553.632L557.712 80.9V89.4L553.632 85.915H535.952V118.385L554.397 118.47C557.57 118.47 560.488 117.535 563.152 115.665L566.552 113.2L564.682 120ZM605.587 77.33V77.415C604.907 77.6983 604.256 78.0667 603.632 78.52C603.066 78.9733 602.471 79.5967 601.847 80.39C601.281 81.1833 600.657 82.2317 599.977 83.535C599.354 84.7817 598.646 86.34 597.852 88.21L586.972 113.54L589.947 120.085H583.487H583.147L566.147 83.025L563.257 77.33H579.322V77.415C578.246 77.5283 577.226 77.7833 576.262 78.18C575.356 78.52 574.647 79.0867 574.137 79.88C573.627 80.6167 573.401 81.6083 573.457 82.855C573.514 84.1017 573.967 85.66 574.817 87.53L581.022 101.13L585.442 110.48L586.207 112.095L596.832 87.53C597.626 85.66 598.022 84.13 598.022 82.94C598.079 81.75 597.881 80.7867 597.427 80.05C597.031 79.3133 596.436 78.775 595.642 78.435C594.906 78.0383 594.141 77.6983 593.347 77.415V77.33H605.587ZM629.866 117.875C632.246 117.875 634.343 117.535 636.156 116.855C637.969 116.118 639.499 115.325 640.746 114.475C642.219 113.455 643.466 112.322 644.486 111.075L645.166 111.67C643.919 113.37 642.361 114.9 640.491 116.26C638.904 117.393 636.949 118.442 634.626 119.405C632.303 120.312 629.526 120.765 626.296 120.765C623.236 120.765 620.374 120.198 617.711 119.065C615.048 117.875 612.724 116.288 610.741 114.305C608.758 112.322 607.199 109.998 606.066 107.335C604.933 104.672 604.366 101.81 604.366 98.75C604.366 95.69 604.933 92.8283 606.066 90.165C607.199 87.5017 608.758 85.1783 610.741 83.195C612.724 81.2117 615.048 79.6533 617.711 78.52C620.374 77.33 623.236 76.735 626.296 76.735C628.676 76.735 630.801 77.075 632.671 77.755C634.541 78.3783 636.156 79.2567 637.516 80.39C637.629 80.5033 637.686 80.56 637.686 80.56C638.593 81.2967 639.386 82.09 640.066 82.94C641.313 84.47 642.191 85.9433 642.701 87.36C643.211 88.7767 643.579 89.995 643.806 91.015C644.033 92.035 644.259 92.8 644.486 93.31C644.769 93.82 645.336 93.9617 646.186 93.735V94.67L637.346 97.22L611.676 105.04C612.129 106.23 612.639 107.392 613.206 108.525C613.829 109.602 614.566 110.622 615.416 111.585L617.116 113.285C618.703 114.702 620.544 115.835 622.641 116.685C624.738 117.478 627.146 117.875 629.866 117.875ZM626.296 77.755C622.953 77.755 620.119 78.5767 617.796 80.22C615.529 81.8633 613.744 83.9883 612.441 86.595C611.194 89.145 610.458 91.9783 610.231 95.095C610.061 98.2117 610.429 101.215 611.336 104.105L637.771 96.115C637.998 94.585 637.998 92.7717 637.771 90.675C637.601 88.5217 637.063 86.51 636.156 84.64C635.306 82.7133 634.059 81.0983 632.416 79.795C630.829 78.435 628.789 77.755 626.296 77.755ZM691.935 120.085H690.15H677.145H675.445V120C676.805 119.83 677.91 119.263 678.76 118.3L679.1 117.96C680.007 116.883 680.46 115.608 680.46 114.135V98.58C680.404 95.9733 680.319 93.4233 680.205 90.93C680.092 88.38 679.752 86.1417 679.185 84.215C678.619 82.2317 677.74 80.645 676.55 79.455C675.417 78.265 673.802 77.67 671.705 77.67C669.495 77.67 667.625 78.3217 666.095 79.625C664.565 80.9283 663.29 82.515 662.27 84.385C661.307 86.255 660.599 88.1817 660.145 90.165C659.749 92.1483 659.55 93.82 659.55 95.18V111.67V114.22C659.55 115.637 660.004 116.883 660.91 117.96L661.25 118.3C662.1 119.263 663.205 119.83 664.565 120V120.085H662.865H649.775H649.86H648.075V120C649.492 119.83 650.625 119.263 651.475 118.3L651.73 117.96C652.637 116.883 653.09 115.608 653.09 114.135V88.465C653.09 86.8783 652.807 85.3483 652.24 83.875C651.73 82.4017 650.909 81.0983 649.775 79.965L659.55 77.33V87.19C659.947 86.1133 660.485 84.98 661.165 83.79C661.845 82.5433 662.667 81.41 663.63 80.39C664.65 79.3133 665.84 78.435 667.2 77.755C668.617 77.075 670.26 76.735 672.13 76.735C675.36 76.735 677.91 77.2733 679.78 78.35C681.707 79.4267 683.18 80.8717 684.2 82.685C685.22 84.4983 685.9 86.5667 686.24 88.89C686.58 91.2133 686.779 93.65 686.835 96.2V111.67V114.22C686.892 115.637 687.374 116.883 688.28 117.96L688.535 118.3C689.385 119.263 690.519 119.83 691.935 120V120.085ZM710.93 115.665C710.25 116.628 709.428 117.478 708.465 118.215C707.672 118.838 706.68 119.433 705.49 120C704.3 120.51 702.94 120.765 701.41 120.765C698.973 120.765 697.132 119.943 695.885 118.3C694.638 116.657 693.958 114.475 693.845 111.755H693.76V78.86H689.17V77.245C690.813 77.245 692.258 76.8483 693.505 76.055C694.752 75.205 695.8 74.2133 696.65 73.08C697.5 71.89 698.152 70.6717 698.605 69.425C699.058 68.1217 699.285 67.045 699.285 66.195H700.22V77.245H709.23V78.86H700.22V111.33C700.22 113.71 700.702 115.353 701.665 116.26C702.628 117.167 703.847 117.62 705.32 117.62C706.17 117.62 706.935 117.507 707.615 117.28C708.295 117.053 708.862 116.798 709.315 116.515C709.882 116.175 710.363 115.778 710.76 115.325L710.93 115.665ZM721.491 86.425C721.491 88.465 722.115 90.1083 723.361 91.355C724.665 92.6017 726.28 93.6783 728.206 94.585C730.133 95.435 732.201 96.2283 734.411 96.965C736.621 97.645 738.69 98.495 740.616 99.515C742.543 100.535 744.13 101.838 745.376 103.425C746.68 104.955 747.331 106.967 747.331 109.46C747.331 110.877 747.02 112.265 746.396 113.625C745.773 114.985 744.781 116.203 743.421 117.28C742.061 118.357 740.305 119.235 738.151 119.915C736.055 120.538 733.476 120.85 730.416 120.85C727.356 120.85 724.835 120.652 722.851 120.255C720.868 119.915 719.225 119.518 717.921 119.065C716.448 118.498 715.258 117.875 714.351 117.195L715.201 111.075C715.825 112.718 716.788 114.192 718.091 115.495C719.225 116.628 720.755 117.648 722.681 118.555C724.608 119.405 727.101 119.83 730.161 119.83C732.428 119.83 734.241 119.518 735.601 118.895C736.961 118.215 737.981 117.422 738.661 116.515C739.398 115.552 739.851 114.532 740.021 113.455C740.248 112.378 740.361 111.387 740.361 110.48C740.361 108.553 739.738 106.995 738.491 105.805C737.301 104.558 735.771 103.51 733.901 102.66C732.088 101.753 730.105 100.932 727.951 100.195C725.798 99.4017 723.786 98.495 721.916 97.475C720.103 96.3983 718.573 95.095 717.326 93.565C716.136 91.9783 715.541 89.9383 715.541 87.445C715.541 86.0283 715.881 84.6967 716.561 83.45C717.241 82.1467 718.205 81.0133 719.451 80.05C720.755 79.03 722.341 78.2367 724.211 77.67C726.081 77.0467 728.235 76.735 730.671 76.735C733.108 76.735 735.176 76.8767 736.876 77.16C738.576 77.4433 739.993 77.755 741.126 78.095C742.43 78.4917 743.478 78.945 744.271 79.455L743.421 84.045C742.741 82.855 741.806 81.7783 740.616 80.815C739.596 80.0217 738.236 79.285 736.536 78.605C734.893 77.8683 732.853 77.5 730.416 77.5C728.773 77.5 727.385 77.755 726.251 78.265C725.118 78.775 724.183 79.455 723.446 80.305C722.766 81.0983 722.256 82.0333 721.916 83.11C721.633 84.1867 721.491 85.2917 721.491 86.425Z" fill="black"/>
<path d="M110.72 120H108.16H104.576H85.888V119.872C88.0213 119.616 89.728 118.763 91.008 117.312L91.52 116.8C92.8 115.179 93.4827 113.301 93.568 111.168V107.328V45.12L58.88 114.368L61.952 120H52.608L11.392 47.296V106.176C11.392 109.163 12.0747 111.893 13.44 114.368C14.8907 116.843 17.024 118.677 19.84 119.872V120H10.624H9.472H0.256V119.872C3.072 118.677 5.20533 116.843 6.656 114.368C8.192 111.893 9.00267 109.163 9.088 106.176V106.304V43.2L3.328 33.088H14.336L57.6 112.064L97.152 33.088H108.16H110.72V33.344C108.928 33.4293 107.307 34.1973 105.856 35.648L105.216 36.416C104.021 37.8667 103.339 39.6587 103.168 41.792V111.168C103.168 113.301 103.851 115.179 105.216 116.8L105.728 117.312C107.179 118.763 108.843 119.616 110.72 119.872V120Z" fill="black"/>
<mask id="mask1_20_3" style="mask-type:alpha" maskUnits="userSpaceOnUse" x="7" y="14" width="129" height="94">
<path d="M135.456 18.5162L135.456 108L135.266 108C134.888 105.099 133.627 102.577 131.483 100.433L130.726 99.6759C129.591 98.6669 128.33 97.9733 126.942 97.5949C125.429 97.0904 123.915 96.7751 122.402 96.649L18.9186 96.649C16.0177 97.0274 13.4953 98.2886 11.3512 100.433C9.20714 102.451 7.88285 104.973 7.37836 108L7 108L7 20.408L27.8102 20.408L24.5941 22.6782C20.1798 25.8313 16.7745 29.8041 14.3781 34.5968C11.8557 39.3894 10.5945 44.4974 10.5945 49.9207L10.5945 82.4602L56.1877 82.4602L56.1877 43.1101L48.4312 34.0292L67.3495 34.0292L59.593 43.1101L59.593 82.4602L131.861 82.4602L132.05 41.4074C132.05 34.3445 129.969 27.8492 125.807 21.9215L120.321 14.3542L135.456 18.5162Z" fill="black"/>
</mask>
<g mask="url(#mask1_20_3)">
<rect x="45.1479" y="82.0024" width="62.5104" height="52.2347" transform="rotate(-90 45.1479 82.0024)" fill="black"/>
</g>
<rect width="7.07086" height="7.07086" transform="matrix(-0.707107 0.707107 0.707107 0.707107 58 79)" fill="black"/>
</mask>
<g mask="url(#mask0_20_3)">
<rect width="750" height="171" fill="white"/>
</g>
</svg>
