<svg width="459" height="39" viewBox="0 0 459 39" fill="none" xmlns="http://www.w3.org/2000/svg">
<mask id="mask0_202_1674" style="mask-type:alpha" maskUnits="userSpaceOnUse" x="0" y="0" width="459" height="39">
<path d="M113.425 13.1041C113.5 13.1002 113.531 13.0865 113.519 13.063L113.463 12.9106C113.45 12.8598 113.362 12.8363 113.2 12.8402C99.2317 13.1764 84.8318 13.704 70.0002 14.4232C69.638 14.4408 69.2677 14.4316 68.9189 14.3965C68.5701 14.3614 68.2525 14.3012 67.9915 14.2209C67.7305 14.1405 67.5334 14.0422 67.416 13.9338C67.2986 13.8253 67.2642 13.7099 67.3155 13.5965C67.4657 13.2487 68.1916 13.0103 69.4933 12.8813C76.5399 12.1699 83.7679 11.6638 91.1775 11.3629C91.3903 11.355 91.4842 11.3199 91.4592 11.2573V11.2515C91.4341 11.1967 91.3277 11.1713 91.14 11.1752C85.3575 11.3589 79.5563 11.5075 73.7363 11.6208C70.6573 11.6794 68.2542 11.2749 68.6297 10.2431C69.0803 9.02756 67.7661 7.9371 64.6871 6.97172C61.7583 6.04542 62.0399 4.69702 66.6771 4.32767C75.1756 3.65151 83.7868 3.15123 92.5105 2.82683C108.656 2.22884 124.427 1.63085 140.742 1.32599C155.523 1.04849 170.311 0.790531 185.105 0.552116C198.266 0.341061 214.787 0.341058 229.938 0.165179C237.398 0.079193 243.387 0.0303375 247.905 0.0186122C285.841 -0.0595566 323.684 0.108498 361.433 0.522792C381.146 0.737756 399.907 1.3338 417.718 2.31091C420.058 2.43598 421.054 2.88741 420.703 3.66519C419.877 5.49043 419.333 7.19451 419.07 8.77742C418.882 9.9226 417.862 11.2124 416.01 12.6468C415.79 12.8144 415.408 12.9543 414.921 13.0454C413.131 13.3737 411.103 13.5399 408.838 13.5438C385.795 13.5789 363.129 13.6884 340.837 13.8721C323.978 14.0128 307.156 14.7339 290.522 15.197C288.745 15.2478 286.968 15.4081 285.191 15.6778C284.415 15.7989 284.458 15.8634 285.322 15.8712C295.554 15.9768 305.617 16.0295 315.135 15.6895C317 15.6231 318.709 15.7305 320.261 16.0119C320.774 16.1097 321.331 16.1409 321.932 16.1057C323.359 16.0198 324.322 15.9807 324.823 15.9885C336.676 16.1448 347.815 16.3676 358.241 16.6568C358.867 16.6725 359.436 16.737 359.95 16.8503C362.979 17.5186 365.982 17.5108 368.961 16.8269C369.462 16.7135 369.95 16.7174 370.426 16.8386C370.626 16.8894 370.682 16.9421 370.595 16.9969C370.169 17.29 370.463 17.4288 371.477 17.4131C379.55 17.2959 388.524 17.5323 398.399 18.1225C406.585 18.6071 414.827 19.0136 423.125 19.3419C432.124 19.6976 440.973 20.0943 449.672 20.532C452.238 20.661 454.691 20.8643 457.031 21.1418C457.73 21.224 458.307 21.3835 458.653 21.59C458.999 21.7964 459.09 22.0355 458.909 22.2615C457.256 24.3447 456.693 26.6097 457.219 29.0564C457.407 29.9123 456.762 30.8367 455.285 31.8294C454.997 32.017 454.878 32.2144 454.928 32.4215C455.567 35.2297 447.7 34.9835 441.618 34.9307C439.628 34.9151 437.706 34.9366 435.854 34.9952C420.853 35.4936 406.66 34.5262 391.791 34.8076C385.608 34.9249 378.905 34.8917 371.684 34.708C359.292 34.3855 347.446 34.6493 334.905 34.7959C334.329 34.8037 333.929 34.8916 333.703 35.0597C333.578 35.1574 333.534 35.263 333.572 35.3763C333.634 35.646 333.265 35.732 332.464 35.6343C332.001 35.5795 331.619 35.4896 331.319 35.3646C330.908 35.1914 330.297 35.0738 329.61 35.0363C326.419 34.8721 323.19 34.7275 319.923 34.6024C318.759 34.5555 317.695 34.6356 316.731 34.8428C316.118 34.9718 315.455 35.0128 314.741 34.9659C312.213 34.8017 309.56 34.8057 306.781 34.9776C304.616 35.1105 301.918 35.1809 298.689 35.1887C290.917 35.2004 283.157 35.2884 275.409 35.4525C265.259 35.6714 257.511 35.7964 252.167 35.8277C240.865 35.8981 229.562 35.9763 218.26 36.0622C217.722 36.0661 217.247 36.0153 216.834 35.9098L216.458 35.8101C216.283 35.7641 216.062 35.7383 215.832 35.7373C215.603 35.7362 215.38 35.7599 215.2 35.8043C213.911 36.1248 212.747 36.2909 211.708 36.3026C202.208 36.4355 192.978 36.6035 184.016 36.8068C182.195 36.842 178.741 36.7306 176.169 36.8654C175.117 36.924 174.091 36.967 173.09 36.9944C154.528 37.5181 133.77 38.0809 110.815 38.6828C104.182 38.8587 98.512 38.9642 93.806 38.9994C93.7936 39.0002 93.7809 39.0002 93.7686 38.9994C93.7563 38.9987 93.7445 38.9972 93.734 38.995C93.7236 38.9928 93.7146 38.99 93.7076 38.9867C93.7006 38.9835 93.6958 38.9798 93.6933 38.976C93.6908 38.9721 93.6908 38.9682 93.6933 38.9643C93.6957 38.9605 93.7005 38.9568 93.7075 38.9535C93.7145 38.9503 93.7234 38.9475 93.7339 38.9453C93.7443 38.9431 93.756 38.9416 93.7684 38.9408C95.5832 38.7219 97.5107 38.5773 99.5509 38.507C125.359 37.5885 151.168 36.6817 176.976 35.7867C186.401 35.4642 193.704 35.4056 201.964 34.9425C206.376 34.6962 210.244 34.9483 214.487 34.3679C214.571 34.356 214.64 34.3355 214.683 34.3098C214.725 34.2842 214.739 34.2548 214.722 34.2264C214.704 34.198 214.657 34.1722 214.587 34.1532C214.517 34.1343 214.429 34.1231 214.337 34.1217C210.056 34.1295 205.863 34.153 201.758 34.192C194.642 34.2624 187.039 34.5731 179.642 34.5262C179.379 34.5262 179.279 34.4852 179.341 34.4031L179.51 34.2096C179.544 34.165 179.62 34.1246 179.727 34.0942C179.835 34.0638 179.969 34.0447 180.111 34.0396C184.855 33.8286 189.373 33.5452 193.666 33.1895C197.208 32.9003 201.032 32.7987 205.137 32.8847C208.892 32.9667 211.445 32.486 214.994 32.3863C219.913 32.2417 225.088 32.0326 230.52 31.759C231.371 31.7199 231.44 31.6262 230.727 31.4776C229.65 31.2549 228.486 31.1904 227.234 31.2842C216.946 32.058 206.946 32.2671 197.233 31.9115C196.57 31.888 196.119 31.972 195.882 32.1636C195.794 32.2417 195.763 32.3218 195.788 32.4039C195.799 32.4405 195.783 32.4775 195.74 32.5117C195.697 32.546 195.629 32.5766 195.541 32.6011C195.454 32.6257 195.349 32.6434 195.235 32.653C195.121 32.6625 195.002 32.6636 194.886 32.656C192.734 32.5192 190.481 32.486 188.128 32.5564C187.314 32.5798 186.513 32.5427 185.725 32.445C184.999 32.3551 185.005 32.273 185.743 32.1987C189.248 31.847 192.609 31.6515 195.825 31.6125C196.489 31.6007 197.033 31.5167 197.459 31.3604C197.659 31.2861 197.884 31.2197 198.134 31.161C198.41 31.0985 198.716 31.0594 199.054 31.0438C201.658 30.9265 204.192 30.9676 206.658 31.1669C206.925 31.187 207.203 31.1869 207.471 31.1665C207.739 31.1461 207.988 31.106 208.197 31.0497C209.224 30.7643 210.457 30.6119 211.896 30.5924C218.755 30.4947 225.301 30.2582 231.534 29.883C232.911 29.797 232.973 29.6563 231.722 29.4609C231.484 29.4218 231.252 29.3827 231.027 29.3436C230.426 29.2381 230.22 29.0798 230.407 28.8687C230.695 28.5365 230.695 28.218 230.407 27.9131C230.368 27.8708 230.359 27.8263 230.382 27.7828C230.405 27.7393 230.459 27.698 230.54 27.6619C230.621 27.6259 230.727 27.596 230.851 27.5745C230.974 27.5531 231.111 27.5405 231.252 27.5379L231.74 27.5262C232.516 27.5106 232.973 27.622 233.111 27.8604C233.499 28.5209 234.275 29.1482 235.439 29.7423C235.802 29.926 236.302 29.9768 236.941 29.8947C239.544 29.5547 242.279 29.4433 245.145 29.5605C245.216 29.5638 245.288 29.5626 245.357 29.5569C245.426 29.5512 245.49 29.5413 245.546 29.5275C245.602 29.5138 245.649 29.4967 245.684 29.4772C245.718 29.4576 245.739 29.4361 245.746 29.414L245.821 29.2264C245.842 29.1759 245.799 29.1248 245.701 29.0842C245.602 29.0436 245.457 29.0167 245.295 29.0095C241.791 28.8453 238.956 28.4369 236.791 27.7841C236.578 27.7138 236.484 27.6376 236.509 27.5555C236.584 27.3718 236.903 27.3073 237.466 27.362L244.469 28.0831C245.258 28.1613 245.946 28.2942 246.534 28.4818C250.026 29.5781 259.188 28.9508 263.131 28.3528C264.745 28.1066 264.658 28.0128 262.868 28.0714C259.226 28.1926 255.308 28.1613 251.115 27.9776C249.951 27.9268 249.1 27.7373 248.562 27.4089C248.237 27.2132 247.679 27.064 247.004 26.9927C242.974 26.5706 239.112 26.4748 235.42 26.7054C231.077 26.979 226.984 26.9477 223.142 26.6116C223.024 26.6002 222.899 26.6021 222.787 26.6171C222.675 26.632 222.583 26.6591 222.528 26.6937C222.473 26.7283 222.457 26.7683 222.483 26.8068C222.509 26.8452 222.576 26.8799 222.672 26.9047L227.347 28.0656C227.517 28.1067 227.651 28.16 227.74 28.2212C227.828 28.2823 227.867 28.3494 227.854 28.4167C227.841 28.484 227.777 28.5496 227.665 28.6079C227.554 28.6662 227.4 28.7155 227.216 28.7515C226.49 28.8922 225.789 28.9078 225.113 28.7984C224.512 28.7046 224.099 28.558 223.874 28.3587L223.348 27.9014C223.236 27.8044 223.039 27.7191 222.781 27.6549C222.522 27.5907 222.212 27.5502 221.884 27.5379C218.617 27.405 215.256 27.4207 211.802 27.5848C211.664 27.5926 211.583 27.5751 211.558 27.5321L211.445 27.321C211.308 27.0943 211.608 26.981 212.347 26.981L218.11 26.9986C218.436 26.9986 218.705 26.9614 218.917 26.8872C219.305 26.7543 218.78 26.5589 217.34 26.3009C217.019 26.2434 216.664 26.2065 216.297 26.1924C215.929 26.1783 215.556 26.1873 215.2 26.2188C210.757 26.6136 206.458 26.6781 202.302 26.4123C198.209 26.1543 194.173 26.7699 189.742 26.8168C169.879 27.024 143.332 27.4969 110.102 28.2356C99.3756 28.474 75.7263 28.8844 39.1541 29.4667C34.01 29.5488 28.8846 29.586 23.778 29.5781C18.734 29.5703 13.5648 29.6328 8.27051 29.7657C7.73389 29.778 7.20263 29.7267 6.78435 29.6222C6.36606 29.5177 6.09199 29.3678 6.01757 29.2029L5.73597 28.6108C5.5232 28.1887 6.08641 27.9327 7.42564 27.8428C11.3495 27.5672 19.6101 27.2917 22.5389 26.4709C23.2148 26.2833 23.1021 26.2091 22.201 26.2481C19.5225 26.3615 17.0005 26.2599 14.6349 25.9433C13.8715 25.8417 13.0829 25.8124 12.2694 25.8553L4.66583 26.2364C4.44911 26.248 4.22678 26.2429 4.0176 26.2216C3.80841 26.2003 3.61852 26.1633 3.4639 26.1139C3.30928 26.0645 3.19447 26.004 3.12919 25.9376C3.06391 25.8711 3.05006 25.8007 3.0888 25.7322L3.18265 25.5739C3.43297 25.144 4.25277 24.8919 5.64207 24.8176C9.53459 24.6105 13.133 24.2802 16.4373 23.8269C17.1757 23.7252 17.1757 23.6217 16.4373 23.5161C11.9565 22.8908 7.55704 22.7813 3.23897 23.1878C1.9498 23.309 1.19887 23.1605 0.986091 22.7423L0.0285861 20.8721C-0.0616277 20.6868 0.0632994 20.4977 0.380489 20.3395C0.697678 20.1812 1.18593 20.0644 1.75584 20.0103C4.72217 19.7289 7.74483 19.7289 10.6173 19.4768C39.4796 16.9011 68.8174 15.0524 98.6309 13.9307C101.147 13.8369 103.625 13.6884 106.066 13.4851C108.619 13.2702 111.072 13.1432 113.425 13.1041ZM372.336 11.1852C372.326 11.1246 372.24 11.0677 372.096 11.027C371.952 10.9862 371.763 10.965 371.569 10.9679L306.762 11.9577C306.666 11.9591 306.572 11.9665 306.485 11.9793C306.398 11.9922 306.32 12.0102 306.256 12.0325C306.191 12.0547 306.141 12.0807 306.109 12.109C306.076 12.1373 306.062 12.1672 306.067 12.1972L306.072 12.2323C306.082 12.2929 306.168 12.3498 306.312 12.3905C306.456 12.4313 306.645 12.4525 306.839 12.4496L371.646 11.4598C371.742 11.4584 371.836 11.451 371.923 11.4382C372.01 11.4253 372.088 11.4073 372.152 11.385C372.217 11.3628 372.267 11.3368 372.299 11.3085C372.332 11.2803 372.346 11.2503 372.341 11.2203L372.336 11.1852ZM126.045 12.5006C126.022 12.4325 125.399 12.3877 124.315 12.3758C123.231 12.3639 121.773 12.386 120.264 12.4372C118.754 12.4885 117.315 12.5646 116.264 12.6489C115.214 12.7332 114.636 12.8188 114.66 12.8868C114.684 12.9548 115.306 12.9997 116.391 13.0116C117.475 13.0234 118.932 13.0013 120.442 12.9501C121.952 12.8989 123.39 12.8228 124.441 12.7385C125.492 12.6542 126.069 12.5686 126.045 12.5006ZM300.857 12.4126C300.851 12.3878 300.478 12.3726 299.821 12.3704C299.164 12.3682 298.276 12.3792 297.353 12.4008C296.429 12.4225 295.546 12.4532 294.897 12.486C294.248 12.5189 293.887 12.5513 293.893 12.5761C293.899 12.6009 294.272 12.6161 294.929 12.6183C295.587 12.6205 296.474 12.6095 297.398 12.5878C298.321 12.5662 299.204 12.5355 299.853 12.5026C300.502 12.4698 300.863 12.4374 300.857 12.4126ZM274.02 13.2213C270.885 13.5027 266.116 13.4617 262.605 13.5731C261.666 13.6004 261.666 13.6356 262.605 13.6786C266.022 13.8369 268.895 13.831 272.293 13.5907C278.3 13.1568 284.045 13.3151 289.997 12.8754C293.251 12.637 293.213 12.5706 289.884 12.6761C284.609 12.8461 279.258 12.764 274.02 13.2213ZM203.313 13.0043C203.293 12.9663 203.248 12.93 203.183 12.8974C203.117 12.8648 203.032 12.8365 202.931 12.8142C202.831 12.7919 202.717 12.776 202.597 12.7674C202.477 12.7588 202.353 12.7577 202.231 12.7641L181.202 13.8748C181.081 13.8812 180.964 13.8951 180.86 13.9155C180.755 13.936 180.665 13.9627 180.594 13.994C180.522 14.0254 180.471 14.0609 180.444 14.0984C180.416 14.1359 180.413 14.1748 180.433 14.2127L180.452 14.2474C180.472 14.2854 180.517 14.3217 180.582 14.3543C180.648 14.3869 180.733 14.4152 180.834 14.4375C180.934 14.4598 181.048 14.4757 181.168 14.4842C181.288 14.4928 181.412 14.494 181.534 14.4875L202.563 13.3769C202.684 13.3704 202.801 13.3566 202.905 13.3362C203.01 13.3157 203.1 13.289 203.172 13.2576C203.243 13.2263 203.294 13.1908 203.321 13.1533C203.349 13.1157 203.353 13.0769 203.332 13.0389L203.313 13.0043ZM169.513 14.2004C169.707 14.2385 169.989 14.2275 170.297 14.1698C170.604 14.112 170.913 14.0124 171.154 13.8927C171.396 13.7729 171.55 13.643 171.584 13.5314C171.618 13.4198 171.528 13.3357 171.334 13.2975C171.14 13.2594 170.858 13.2704 170.551 13.3282C170.243 13.3859 169.934 13.4855 169.693 13.6053C169.451 13.725 169.297 13.8549 169.263 13.9665C169.23 14.0781 169.319 14.1623 169.513 14.2004ZM261.361 13.6898C261.351 13.6685 261.328 13.6479 261.293 13.6294C261.258 13.6108 261.211 13.5946 261.156 13.5816C261.101 13.5687 261.038 13.5593 260.971 13.5539C260.904 13.5485 260.835 13.5473 260.766 13.5504L228.797 14.9712C228.728 14.9742 228.663 14.9815 228.603 14.9924C228.544 15.0034 228.492 15.0179 228.45 15.0352C228.409 15.0524 228.379 15.072 228.362 15.0929C228.345 15.1138 228.341 15.1355 228.35 15.1569L228.366 15.1917C228.376 15.213 228.399 15.2336 228.434 15.2521C228.469 15.2707 228.516 15.2869 228.571 15.2999C228.626 15.3128 228.689 15.3222 228.756 15.3276C228.823 15.333 228.892 15.3342 228.961 15.3311L260.93 13.9103C260.999 13.9073 261.064 13.9 261.124 13.8891C261.183 13.8781 261.235 13.8636 261.277 13.8463C261.318 13.8291 261.348 13.8095 261.365 13.7886C261.382 13.7677 261.386 13.746 261.377 13.7246L261.361 13.6898ZM165.017 14.3235C159.347 15.326 151.405 15.7892 144.083 15.8243C143.896 15.8243 143.783 15.8517 143.745 15.9064L143.633 16.1057C143.57 16.2191 143.72 16.2718 144.083 16.264C152.332 16.0295 160.354 15.7247 168.152 15.3495C171.243 15.2009 171.375 14.9195 168.546 14.5052C167.983 14.4192 167.401 14.343 166.8 14.2766C166.187 14.2062 165.592 14.2219 165.017 14.3235ZM176.528 14.559C176.508 14.514 176.447 14.4713 176.349 14.4332C176.251 14.3951 176.118 14.3625 175.957 14.3371C175.796 14.3117 175.61 14.2941 175.411 14.2853C175.211 14.2765 175.002 14.2767 174.794 14.2858C174.587 14.2949 174.385 14.3128 174.201 14.3384C174.017 14.364 173.854 14.3969 173.722 14.4352C173.589 14.4734 173.49 14.5163 173.429 14.5613C173.369 14.6064 173.348 14.6527 173.368 14.6977C173.388 14.7427 173.449 14.7854 173.547 14.8235C173.645 14.8616 173.779 14.8942 173.94 14.9196C174.101 14.945 174.286 14.9626 174.486 14.9714C174.685 14.9802 174.895 14.98 175.102 14.9709C175.31 14.9618 175.511 14.9439 175.695 14.9183C175.879 14.8927 176.042 14.8598 176.175 14.8215C176.307 14.7833 176.406 14.7404 176.467 14.6954C176.528 14.6503 176.549 14.604 176.528 14.559ZM255.753 19.5237C257.68 19.3712 259.67 19.4045 261.723 19.6233C264.145 19.8872 267.224 19.6468 269.364 19.2892C270.165 19.1602 270.115 19.0996 269.214 19.1074C259.176 19.2012 249.532 19.1563 240.283 18.9726C235.401 18.8749 230.238 18.912 224.794 19.084C219.412 19.2559 214.124 19.3752 208.93 19.4416C207.766 19.4572 207.465 19.6253 208.028 19.9458C208.316 20.106 208.667 20.1588 209.08 20.1041C211.921 19.7601 214.543 19.7406 216.946 20.0455C217.685 20.1353 218.054 20.3034 218.054 20.5496C218.066 20.7372 218.373 20.8369 218.974 20.8486C224.268 20.96 237.485 21.2942 241.503 20.3855C245.201 19.5471 249.989 19.9634 253.969 20.3972C256.147 20.6395 258.957 20.7118 262.399 20.6141C263.212 20.5907 263.262 20.5184 262.549 20.3972C260.271 20.0064 257.98 19.8344 255.677 19.8813C255.615 19.8813 255.559 19.8754 255.508 19.8637C255.346 19.8246 255.271 19.7699 255.283 19.6996C255.288 19.6589 255.337 19.6198 255.421 19.5881C255.506 19.5563 255.622 19.5337 255.753 19.5237ZM369.036 19.3185C369.249 19.3419 369.468 19.3478 369.693 19.3361C370.282 19.3048 370.351 19.2266 369.9 19.1016C369.049 18.867 368.173 18.8319 367.272 18.996C366.333 19.168 366.402 19.2814 367.478 19.3361C367.804 19.3517 368.123 19.3458 368.436 19.3185C368.631 19.2995 368.841 19.2995 369.036 19.3185ZM287.894 19.2716C287.894 19.2677 287.888 19.2638 287.875 19.2599C285.973 19.2247 284.07 19.1485 282.168 19.0312C281.918 19.0156 281.736 19.0468 281.623 19.125L281.417 19.2833C281.267 19.3966 281.386 19.4572 281.774 19.4651L287.387 19.5764C287.675 19.5803 287.831 19.5393 287.857 19.4533L287.894 19.2716ZM320.557 19.6359C320.564 19.6021 320.51 19.5675 320.399 19.5341C320.288 19.5008 320.122 19.4693 319.91 19.4415C319.699 19.4137 319.446 19.3901 319.167 19.3721C318.887 19.3541 318.586 19.342 318.281 19.3365C317.664 19.3254 317.068 19.3419 316.623 19.3823C316.179 19.4228 315.922 19.4839 315.909 19.5522C315.903 19.586 315.957 19.6206 316.068 19.6539C316.179 19.6873 316.345 19.7187 316.556 19.7465C316.768 19.7743 317.02 19.7979 317.3 19.8159C317.58 19.834 317.88 19.8461 318.186 19.8516C318.802 19.8627 319.398 19.8462 319.843 19.8057C320.288 19.7653 320.545 19.7042 320.557 19.6359ZM382.871 19.7655C382.911 19.6935 382.675 19.6095 382.215 19.5319C381.754 19.4543 381.107 19.3896 380.415 19.3519C380.073 19.3332 379.73 19.3218 379.406 19.3182C379.082 19.3146 378.783 19.3189 378.527 19.3309C378.27 19.3429 378.062 19.3624 377.912 19.3882C377.763 19.4139 377.675 19.4456 377.656 19.4812C377.615 19.5532 377.852 19.6372 378.312 19.7148C378.773 19.7923 379.42 19.8571 380.112 19.8948C380.454 19.9134 380.797 19.9249 381.121 19.9285C381.445 19.9321 381.744 19.9278 382 19.9158C382.256 19.9038 382.465 19.8843 382.615 19.8585C382.764 19.8327 382.851 19.8011 382.871 19.7655ZM333.327 19.6556C333.329 19.6325 333.266 19.6092 333.141 19.5868C333.016 19.5644 332.833 19.5435 332.601 19.5253C332.369 19.5071 332.092 19.4918 331.788 19.4805C331.484 19.4692 331.157 19.4619 330.827 19.4592C330.16 19.4538 329.519 19.4671 329.044 19.4962C328.57 19.5253 328.301 19.5679 328.297 19.6145C328.295 19.6376 328.358 19.661 328.483 19.6833C328.607 19.7057 328.791 19.7266 329.023 19.7448C329.255 19.7631 329.531 19.7783 329.836 19.7896C330.14 19.801 330.467 19.8082 330.797 19.8109C331.464 19.8163 332.105 19.803 332.58 19.7739C333.054 19.7448 333.323 19.7023 333.327 19.6556ZM392.391 20.5496C390.139 20.9913 387.754 21.0089 385.239 20.6024C384.688 20.5125 384.106 20.4812 383.493 20.5086C381.24 20.5985 379.031 20.5145 376.865 20.2565C376.272 20.187 375.637 20.159 375.007 20.1744C370.839 20.2839 366.715 20.237 362.634 20.0337C360.169 19.9086 357.434 19.8754 354.43 19.9341C351.601 19.9927 348.766 19.9673 345.925 19.8578C344.06 19.7875 342.051 19.7992 339.899 19.893C339.06 19.9282 339.035 19.9927 339.824 20.0865C342.64 20.4304 345.45 20.4754 348.253 20.2213C348.866 20.1677 349.511 20.1698 350.112 20.2272C353.316 20.5321 356.608 20.706 359.987 20.749C363.316 20.788 366.627 20.8682 369.919 20.9893C378.229 21.2981 386.096 21.4212 393.518 21.3587C394.632 21.347 394.669 21.2805 393.631 21.1594C393.243 21.1125 392.917 21.0343 392.654 20.9249C392.316 20.7841 392.229 20.6591 392.391 20.5496C393.305 20.5301 394 20.4793 394.475 20.3972C395.189 20.2721 395.151 20.1764 394.363 20.1099C392.285 19.938 390.22 19.7582 388.167 19.5706C387.929 19.5471 387.773 19.5725 387.698 19.6468C387.623 19.7289 387.71 19.7836 387.961 19.8109C389.05 19.9126 390.17 19.9907 391.321 20.0455C391.822 20.0689 392.185 20.151 392.41 20.2917C392.56 20.3855 392.554 20.4715 392.391 20.5496ZM276.686 20.2682C275.622 20.3112 273.469 20.3718 270.228 20.45C270.195 20.4521 270.165 20.457 270.142 20.4643C270.119 20.4716 270.103 20.4809 270.096 20.491C270.096 20.5145 270.071 20.5321 270.021 20.5438C269.883 20.5907 269.915 20.618 270.115 20.6258C272.743 20.747 275.453 20.7607 278.244 20.6669C278.707 20.6513 278.776 20.5926 278.451 20.491C278.325 20.4519 278.188 20.4167 278.038 20.3855C277.637 20.2878 277.186 20.2487 276.686 20.2682ZM111.867 25.7791C126.642 25.6091 142.187 25.316 157.188 24.9466C174.723 24.5245 192.108 24.5011 210.488 24.3486C224.287 24.2314 242.817 24.4952 258.55 24.1552C265.158 24.0145 265.165 23.8562 258.569 23.6803C256.266 23.6217 253.994 23.5826 251.754 23.563C234.882 23.4223 215.876 23.4712 194.736 23.7096C186.982 23.7976 178.834 24.1962 170.799 24.3486C160.361 24.5441 155.104 24.6437 155.029 24.6476C140.948 24.9877 126.229 25.017 111.81 25.6032C107.755 25.7713 107.774 25.8299 111.867 25.7791ZM69.9446 26.7472C69.9352 26.7174 69.9071 26.6883 69.8618 26.6618C69.8165 26.6354 69.755 26.6119 69.6807 26.5928C69.6064 26.5738 69.5208 26.5595 69.4288 26.5508C69.3368 26.542 69.2402 26.5391 69.1445 26.542L25.4598 27.8795C25.3641 27.8825 25.2712 27.8913 25.1863 27.9054C25.1015 27.9195 25.0265 27.9388 24.9654 27.962C24.9044 27.9852 24.8586 28.0119 24.8307 28.0406C24.8027 28.0694 24.7931 28.0995 24.8025 28.1294L24.8098 28.1527C24.8192 28.1826 24.8474 28.2116 24.8927 28.2381C24.9379 28.2646 24.9995 28.2881 25.0738 28.3071C25.1481 28.3262 25.2337 28.3405 25.3257 28.3492C25.4177 28.3579 25.5143 28.3609 25.61 28.358L69.2946 27.0204C69.3903 27.0175 69.4833 27.0087 69.5681 26.9946C69.6529 26.9804 69.728 26.9612 69.789 26.938C69.8501 26.9148 69.8958 26.8881 69.9238 26.8593C69.9517 26.8306 69.9613 26.8004 69.9519 26.7706L69.9446 26.7472Z" fill="#FF78AA"/>
</mask>
<g mask="url(#mask0_202_1674)">
<rect x="-82" width="623" height="114.31" fill="white"/>
</g>
</svg>
